PathFileType	4	(X/Y/Z)	RBDS05\RBDS05runT25.trc
DataRate	CameraRate	NumFrames	NumMarkers	Units	OrigDataRate	OrigDataStartFrame	OrigNumFrames
150.000000	150.000000	6	33	mm	150.000000	3375	4500
Frame#	Time	L.ASIS			L.Heel.Bottom			L.Heel.Lateral			L.Heel.Top			L.Iliac.Crest			L.MT1			L.MT5			L.PSIS			L.Shank.Bottom.Lateral			L.Shank.Bottom.Medial			L.Shank.Top.Lateral			L.Shank.Top.Medial			L.Thigh.Bottom.Lateral			L.Thigh.Bottom.Medial			L.Thigh.Top.Lateral			L.Thigh.Top.Medial			R.ASIS			R.ASY			R.Heel.Bottom			R.Heel.Lateral			R.Heel.Top			R.Iliac.Crest			R.MT1			R.MT5			R.PSIS			R.Shank.Bottom.Lateral			R.Shank.Bottom.Medial			R.Shank.Top.Lateral			R.Shank.Top.Medial			R.Thigh.Bottom.Lateral			R.Thigh.Bottom.Medial			R.Thigh.Top.Lateral			R.Thigh.Top.Medial			
		X1	Y1	Z1	X2	Y2	Z2	X3	Y3	Z3	X4	Y4	Z4	X5	Y5	Z5	X6	Y6	Z6	X7	Y7	Z7	X8	Y8	Z8	X9	Y9	Z9	X10	Y10	Z10	X11	Y11	Z11	X12	Y12	Z12	X13	Y13	Z13	X14	Y14	Z14	X15	Y15	Z15	X16	Y16	Z16	X17	Y17	Z17	X18	Y18	Z18	X19	Y19	Z19	X20	Y20	Z20	X21	Y21	Z21	X22	Y22	Z22	X23	Y23	Z23	X24	Y24	Z24	X25	Y25	Z25	X26	Y26	Z26	X27	Y27	Z27	X28	Y28	Z28	X29	Y29	Z29	X30	Y30	Z30	X31	Y31	Z31	X32	Y32	Z32	X33	Y33	Z33	

3376	22.5	2208.416306042696	943.1841149666978	928.9307696516169	1646.831099681117	293.667817005718	1042.883532091276	1661.786337201521	281.1156778857442	990.3948841827679	1695.266858335857	302.3083069454885	1032.409492708904	2155.385660493357	1016.402169633633	899.3049564084346	1738.366745757051	109.880648069307	1013.323053752123	1694.055471057015	150.9564940916552	927.8018272769783	2061.867431625044	988.8674783986561	1009.955137285682	1772.424165865228	310.0988452005037	944.0064024874088	1759.055936900297	336.3213784855924	985.8229653410086	1829.058412268486	364.6839376250749	924.3530313537315	1818.866788687706	393.7749841093984	967.498682310998	2065.927367058783	599.9143498109769	873.5074794694979	2012.063448691789	600.8738901522162	923.553510198001	2065.98046276199	710.3478835147771	877.0282838217613	2019.953635920545	711.0072442453412	928.8602489026715	2221.192868298875	953.18245983679	1152.738704364841	2329.163652587119	95.66485014158225	1083.117595147654	2164.39431000752	23.07485885434362	1070.591164771977	2189.574568465643	38.68765509130266	1110.014776116195	2171.646127502149	70.73554907726468	1070.837622466865	2168.783206272999	1000.260067457008	1189.252544468515	2369.593168376485	52.96942886520703	1038.829001407642	2342.833023087209	44.69998840191946	1141.887607901824	2069.125684020885	988.9751356863306	1098.645766284402	2223.124722025889	168.0679922524151	1130.270268423664	2181.225356716765	171.4391791323255	1095.597988790909	2214.315125141575	247.1012350225531	1145.503406593903	2173.914397502579	249.6479244637854	1109.617029847508	2237.667018813482	573.9664490123338	1178.448223742344	2172.793279474256	553.5824988598379	1151.473965943459	2196.112085256806	674.902329304254	1197.552533142011	2134.33368117824	655.2092264697404	1171.203224262451	
3377	22.50666666666667	2208.632897343373	938.9071988495959	929.4226639717218	1651.756391162525	295.9536527481739	1042.038217223358	1666.974711712745	283.4997640235551	989.6008865214886	1700.341838674912	304.1393064769283	1032.039504959361	2155.405080332604	1010.505843486194	898.9647367884025	1741.70743280813	111.3162895097676	1012.317123430498	1698.474678311045	153.3059491264589	926.6601091857108	2061.222151586277	983.4202265568986	1009.632988699826	1778.438792479538	310.101396668929	943.3347397964869	1765.526345232279	337.0306359668668	984.7785235012242	1836.224570584948	363.2843403069776	923.2459987959709	1826.611067242358	392.9979114654079	966.0406341800368	2072.555263114959	593.8456374219884	872.5084574666532	2018.459361510968	593.4369778403561	922.2875611098591	2070.3568326491	704.2259521558742	876.5286704763173	2024.076225700582	703.6831532170543	928.1033241172665	2220.508537081929	950.1971006691236	1153.767298782227	2315.308916848147	92.09218483335616	1082.702599788552	2147.764727965237	24.31261241221472	1070.714794794254	2173.453411729549	39.30999579905712	1110.096711151094	2156.405409967234	71.91928216779981	1070.90021823596	2167.471791405472	995.677284366995	1189.982004096278	2354.512302010578	48.51355167887195	1038.363385973706	2327.688512996743	41.41903443445381	1141.848053906838	2067.707466112874	984.5228980699405	1098.141646220771	2213.730759624284	166.9862696117545	1130.495552589355	2171.500507719903	172.2243403767668	1096.421902596415	2208.311625980384	246.3030736216461	1146.091017411781	2167.534150468397	250.6265722107947	1110.785199331723	2239.291471511894	571.8371911007391	1179.495550864729	2174.468494561369	550.9116915796393	1152.564345321972	2196.776295430524	672.4566470056723	1198.630690698253	2135.057326001391	652.1657158442501	1172.364190066905	
3378	22.51333333333334	2208.61042589498	934.6886742498851	929.8478795937268	1657.472388883055	297.7578151642685	1040.604703321171	1673.162827247483	285.2850862529301	988.3251137078073	1706.19626122909	305.5876869350949	1031.188577554911	2155.192070343639	1004.547791883215	898.5390595621475	1746.427436494091	112.4879685763593	1011.555110155162	1704.453460316694	154.9702710285083	925.5278907198735	2060.366086941217	978.0804914079046	1009.15562685213	1785.535945378733	309.7014319521651	942.5131733005932	1772.886684543318	337.3910586282264	983.4776003945138	1844.381499232751	361.5499275511414	922.0553442246245	1835.123929633693	391.9420324316833	964.3916648339173	2079.666174693698	587.9420488256686	871.7457962727487	2025.203487766473	586.1695006773659	921.033852163533	2075.09890348825	698.2245702167335	876.0970077024273	2028.425147320314	696.4837379069746	927.2230153571538	2219.672614977816	947.4853866911205	1154.754149326922	2300.84882449115	89.49379220509981	1082.318247373497	2131.209588475421	25.48321138122913	1070.901186634558	2157.24580031266	40.02884855233689	1110.255615968549	2140.879248913086	73.03068096801493	1071.038858233565	2165.894401611926	991.3226621554742	1190.661118515687	2339.060225382411	45.37303233257202	1037.928881533079	2312.245611042785	39.32354748665253	1141.851195696834	2066.114886599481	980.2416116752128	1097.454003738546	2203.927465418931	166.3687846239045	1130.819108635826	2161.408643267375	173.4421610332054	1097.360244241946	2201.850593004318	245.836340478097	1146.777274307585	2160.758168760958	251.9159192183767	1112.068548606218	2240.300953841964	569.7679661955805	1180.74445013775	2175.562241777939	548.4196337318124	1153.705106795978	2197.003977729908	670.1378618604284	1199.84494512756	2135.345204529321	649.3645591629054	1173.564819538915	
3379	22.52	2208.367009824251	930.6241890601851	930.2121398975441	1663.935860805056	299.0431309833079	1038.582280925976	1680.315179909087	286.4462013739531	986.5738473777062	1712.784375723819	306.6417930117757	1029.857666094573	2154.674189968797	998.6979635895232	898.0638193051391	1752.539785820215	113.3875616692387	1011.05176437884	1711.994533961968	155.9379393440538	924.4176288181078	2059.341955757993	972.9783597895211	1008.544444102602	1793.676744255719	308.948028203971	941.5588957082907	1781.106182434457	337.4349346486118	981.9614006310441	1853.486290833669	359.5597264155817	920.8207275281928	1844.371225241025	390.6677754870466	962.6143642024762	2087.261007462995	582.3374389484094	871.2495443818609	2032.317523470201	579.2007600604612	919.8403160818569	2080.211806630251	692.4708763847841	875.7573266001574	2033.013317425154	689.5337110242866	926.2437607673181	2218.707068501032	945.078753218963	1155.697599489627	2285.872971099803	87.78487448954854	1082.001814929717	2114.785498737373	26.52108279174578	1071.131747991541	2141.023618273892	40.7681492347949	1110.472478754724	2125.144298427223	74.01018208063347	1071.239371144072	2164.071649147183	987.3151407414571	1191.275614700168	2323.334257013483	43.42658992086362	1037.560129581738	2296.569070535381	38.25443272021539	1141.902525596114	2064.417539581054	976.217334231881	1096.612423377628	2193.609931067795	166.1006592373099	1131.228365503156	2150.879355183561	174.9401082599527	1098.352830996607	2194.757425290739	245.5887897064391	1147.533624896212	2153.441066463753	253.3666659418047	1113.398552494082	2240.471631423673	567.7109593243434	1182.162096537459	2175.839434059346	546.102656929346	1154.874136392266	2196.662642108364	667.9306992404823	1201.149765551705	2135.050876503147	646.8403156581423	1174.766417254888	
3380	22.52666666666667	2207.940124591753	926.8063048201819	930.5276847991547	1671.100173868901	299.7528182059506	1036.002730321718	1688.383871498925	286.9518805534498	984.3801229898285	1720.055431643607	307.2740706339784	1028.075779301188	2153.801997315315	993.1424202142689	897.5800735100393	1760.048468177991	113.9997782578605	1010.802413566234	1721.079030640919	156.2112873659986	923.3380190534435	2058.205924856383	968.2436435829051	1007.834415224123	1802.796790498618	307.8942512356592	940.4982404976478	1790.138019848976	337.1879815808641	980.2878547319311	1863.468608836206	357.3988967342787	919.5889697374591	1854.302472602842	389.2321291869816	960.7866542672327	2095.318762633728	577.158677800047	871.037072014369	2039.811628995809	572.6491752685877	918.7565399096183	2085.679381300575	687.0844641011902	875.5308774360338	2037.845562579205	682.9464332849291	925.201838651129	2217.636352196525	942.9853193927671	1156.597569119478	2270.456573658548	86.81895318781453	1081.784406806578	2098.487507207371	27.38018115463188	1071.387620452272	2124.808435467124	41.45895011734516	1110.727096480189	2109.24079958714	74.81673474901031	1071.486262621605	2162.044883891644	983.7510744715628	1191.815407080113	2307.398419719905	42.46803157259377	1037.284753570818	2280.694206974259	37.98440894471945	1142.004375995523	2062.690506157059	972.5330539864584	1095.663840191744	2182.667319677204	166.0515325895711	1131.707693672052	2139.82840499722	176.5568929416776	1099.342699586422	2186.862959602165	245.4416165618045	1148.331008489782	2145.433420912644	254.8287120680711	1114.711071846645	2239.617728017265	565.626693983222	1183.705710801909	2175.093550970761	543.9554890284502	1156.061777161539	2195.640564449714	665.8237349338718	1202.496592979196	2134.046175259296	644.6203492150613	1175.941015080534	
3381	22.53333333333333	2207.382787493918	923.3218542012527	930.8134049169099	1678.92025308179	299.8158238262926	1032.932743225902	1697.310950522796	286.7680717240971	981.8044942593941	1727.958582255054	307.4419151389046	1025.900845791635	2152.562951412049	988.0708469494263	897.1298095406974	1768.945180143737	114.3011617399958	1010.781629598923	1731.662313710941	155.8060998608623	922.293830228978	2057.021386638097	963.998446030405	1007.069104711748	1812.809511454925	306.5913540252587	939.3656990317949	1799.919467801805	336.6662763922261	978.5275129581568	1874.233643783835	355.1515067010975	918.4108422364417	1864.85011910393	387.6844097129911	958.9955154933542	2103.796039319583	572.52003727331	871.1122460991008	2047.678970253376	566.6184610475074	917.8276042178554	2091.464248180774	682.1720353879306	875.4344754177698	2042.915859126815	676.8199403544431	924.1415691977273	2216.484033387148	941.1941747604156	1157.455153897018	2254.663842194273	86.41693940930419	1081.686917697817	2082.270284876641	28.03615707352157	1071.651715251902	2108.587274094359	42.04667651087416	1111.000489275616	2093.18412522441	75.42957943310527	1071.76406032154	2159.875099874656	980.6979821894738	1192.27550070926	2291.290974499754	42.24554700731282	1037.120130080898	2264.63807433079	38.25866891602362	1142.155008612476	2061.005239380861	969.2660557827915	1094.666624167077	2171.008320786073	166.097516250705	1132.239576769391	2128.178789728065	178.1452638375721	1100.283443469642	2178.031331207213	245.2890606587742	1149.14246239149	2136.605947123342	256.1719260155995	1115.954544392332	2237.606933011828	563.4944723582945	1185.326395960046	2173.165341591132	541.9786450405246	1157.269602310755	2193.854930649082	663.8163554117333	1203.838338161758	2132.231761007026	642.7279407901713	1177.072898782452	
